<?xml version="1.0" standalone="no"?>
<!DOCTYPE svg PUBLIC "-//W3C//DTD SVG 20010904//EN"
 "http://www.w3.org/TR/2001/REC-SVG-20010904/DTD/svg10.dtd">
<svg version="1.0" xmlns="http://www.w3.org/2000/svg"
 width="128.000000pt" height="128.000000pt" viewBox="0 0 128.000000 128.000000"
 preserveAspectRatio="xMidYMid meet">
<metadata>
Created by potrace 1.14, written by Peter Selinger 2001-2017
</metadata>
<g transform="translate(0.000000,128.000000) scale(0.100000,-0.100000)"
fill="#000000" stroke="none">
<path d="M120 756 l0 -396 38 -1 c36 -1 97 -1 137 0 19 1 20 7 17 188 l-3 187
23 -20 c12 -10 58 -54 102 -96 45 -43 85 -78 89 -78 5 0 34 24 65 54 32 30 77
73 102 96 l45 42 5 -51 5 -51 93 88 93 87 -3 173 -3 173 -119 -113 c-66 -62
-145 -138 -177 -168 -31 -30 -68 -65 -82 -78 l-25 -24 -35 34 c-19 18 -103 98
-187 178 -84 80 -159 151 -167 158 -11 11 -13 -51 -13 -382z"/>
<path d="M1030 838 c-319 -308 -287 -281 -314 -263 -13 9 -27 24 -31 32 -4 13
-20 3 -70 -47 l-65 -64 48 -44 c26 -24 67 -63 92 -88 l46 -44 102 100 c57 55
105 100 108 100 2 0 4 -83 4 -185 l0 -185 95 0 95 0 0 395 c0 217 -1 395 -2
395 -2 0 -50 -46 -108 -102z"/>
<path d="M331 402 c0 -139 4 -253 7 -253 4 -1 46 -2 95 -3 81 -1 87 0 88 19 1
11 2 83 3 160 l1 140 -70 70 c-39 39 -83 81 -98 94 l-27 25 1 -252z"/>
</g>
</svg>
